<?xml version="1.0" encoding="UTF-8" standalone="no"?>
<!-- Created with Inkscape (http://www.inkscape.org/) -->

<svg
   version="1.1"
   id="svg2"
   width="627"
   height="627"
   viewBox="0 0 627 627"
   sodipodi:docname="racafc.svg"
   inkscape:version="1.1 (c4e8f9ed74, 2021-05-24)"
   xmlns:inkscape="http://www.inkscape.org/namespaces/inkscape"
   xmlns:sodipodi="http://sodipodi.sourceforge.net/DTD/sodipodi-0.dtd"
   xmlns="http://www.w3.org/2000/svg"
   xmlns:svg="http://www.w3.org/2000/svg">
  <defs
     id="defs6" />
  <sodipodi:namedview
     id="namedview4"
     pagecolor="#ffffff"
     bordercolor="#666666"
     borderopacity="1.0"
     inkscape:pageshadow="2"
     inkscape:pageopacity="0.0"
     inkscape:pagecheckerboard="true"
     showgrid="false"
     width="627px"
     inkscape:zoom="0.5729031"
     inkscape:cx="405.82779"
     inkscape:cy="302.84353"
     inkscape:window-width="1366"
     inkscape:window-height="694"
     inkscape:window-x="0"
     inkscape:window-y="0"
     inkscape:window-maximized="1"
     inkscape:current-layer="layer1" />
  <g
     inkscape:groupmode="layer"
     inkscape:label="aurea"
     id="g8" />
  <g
     inkscape:groupmode="layer"
     id="layer2"
     inkscape:label="branco" />
  <g
     inkscape:groupmode="layer"
     id="layer3"
     inkscape:label="letreiro" />
  <g
     inkscape:groupmode="layer"
     id="layer1"
     inkscape:label="leao">
    <g
       id="g9548"
       transform="translate(-124.912,1.7533587)">
      <g
         id="g4169"
         transform="matrix(0.67489001,0,0,0.69508103,153.80288,120.77105)">
        <path
           id="path2450-3-7"
           style="fill:#008000;stroke:#fdfdfd;stroke-width:4;stroke-miterlimit:4;stroke-dasharray:none;stroke-opacity:1"
           d="m 853.23325,272.75299 c -863.0427723,0 0,0 -863.0427723,0 0,114.44658 45.4637303,224.20574 126.3896823,305.13169 80.92596,80.92596 190.68511,126.38969 305.13169,126.3897 114.44659,0 224.20575,-45.46373 305.13171,-126.38969 80.92596,-80.92595 126.38969,-190.68511 126.38969,-305.1317 z"
           sodipodi:nodetypes="ccsssc" />
        <path
           id="path2450-3"
           style="fill:#ff0000;stroke:#fdfdfd;stroke-width:4;stroke-miterlimit:4;stroke-dasharray:none;stroke-opacity:1"
           d="m 853.23325,276.75299 c -863.0427717,0 0,0 -863.0427717,0 0,-114.44658 45.4637297,-224.20574 126.3896817,-305.13169 80.92596,-80.92596 190.68511,-126.38969 305.13169,-126.3897 114.44659,0 224.20575,45.46373 305.13171,126.38969 80.92596,80.92595 126.38969,190.68511 126.38969,305.1317 z"
           sodipodi:nodetypes="ccsssc" />
        <path
           id="path2450"
           style="fill:#ffff00;stroke:#fdfdfd;stroke-width:4;stroke-miterlimit:4;stroke-dasharray:none;stroke-opacity:1"
           d="m 9.8329622,148.10938 a 431.52139,431.52139 0 0 0 -19.6425781,127.375 431.52139,431.52139 0 0 0 19.6425781,127.375 H 833.58882 a 431.52139,431.52139 0 0 0 19.64453,-127.375 431.52139,431.52139 0 0 0 -19.2793,-127.375 z" />
        <path
           id="path2450-5"
           style="fill:#ffffff;stroke:#fdfdfd;stroke-width:4;stroke-miterlimit:4;stroke-dasharray:none;stroke-opacity:1"
           d="M 9.7163059,148.10938 A 431.52139,431.52139 0 0 0 -0.93018408,189.30079 H 844.36084 A 431.52139,431.52139 0 0 0 833.8374,148.10938 Z M -0.93018408,361.66602 A 431.52139,431.52139 0 0 0 9.7163059,402.85938 H 833.47217 a 431.52139,431.52139 0 0 0 10.64844,-41.19336 z" />
      </g>
      <g
         aria-label="Raça"
         id="text5559"
         style="font-size:71.0613px;line-height:1.25;stroke-width:1.77653">
        <path
           d="m 387.91516,50.954613 q 2.3732,0.193211 5.03276,2.103139 2.69323,1.901507 5.84116,5.620691 l 10.33595,12.007386 -7.30437,1.827218 -9.65419,-11.283753 q -3.75394,-4.425997 -6.52279,-5.485945 -2.73519,-1.068369 -6.77447,-0.05793 l -7.40535,1.85248 5.31325,21.239893 -6.79946,1.700914 -12.5716,-50.255406 15.34927,-3.839686 q 8.61714,-2.155612 13.75936,0.385115 5.14223,2.540728 6.96103,9.811437 1.18727,4.746156 -0.25124,8.432344 -1.40485,3.677768 -5.30931,5.942098 z m -22.31187,-16.844547 4.46279,17.840164 8.54982,-2.138772 q 4.91446,-1.229373 6.84118,-4.107746 1.95197,-2.920454 0.8489,-7.330004 -1.10307,-4.40955 -4.18336,-5.999628 -3.05506,-1.63216 -7.96952,-0.402787 z"
           style="fill:#ffffff"
           id="path5974" />
        <path
           d="m 432.14441,48.98377 q -7.70413,0.7192 -10.51075,2.758493 -2.80662,2.039292 -2.40994,6.288658 0.31607,3.385674 2.71417,5.183032 2.42944,1.759586 6.26423,1.401599 5.2858,-0.493443 8.11587,-4.521304 2.8614,-4.065634 2.28088,-10.284219 l -0.13223,-1.416455 z m 12.4339,-3.809242 2.06084,22.075975 -6.35677,0.593421 -0.54827,-5.873107 q -1.84754,3.727047 -4.937,5.723044 -3.09267,1.96145 -7.79116,2.400066 -5.9422,0.554719 -9.77568,-2.432897 -3.80215,-3.02539 -4.32462,-8.622116 -0.60955,-6.529514 3.43385,-10.252456 4.07795,-3.726168 12.74942,-4.535672 l 8.9133,-0.83208 -0.0581,-0.621858 q -0.40959,-4.387557 -3.53413,-6.500438 -3.09321,-2.150654 -8.30991,-1.663662 -3.31658,0.309611 -6.38625,1.397694 -3.06966,1.088082 -5.82331,2.948185 L 413.3423,33.10552 q 3.36354,-1.673097 6.58429,-2.635889 3.21753,-0.997339 6.32682,-1.2876 8.39509,-0.783703 12.94718,3.182293 4.55209,3.965995 5.37772,12.810204 z"
           style="fill:#ffffff"
           id="path5976" />
        <path
           d="m 489.47727,31.061363 -0.27399,5.961746 q -2.63508,-1.614686 -5.33988,-2.468417 -2.66853,-0.886798 -5.44144,-1.014234 -6.20437,-0.285138 -9.81744,3.508551 -3.61147,3.759027 -3.93803,10.864597 -0.32655,7.10557 2.92332,11.214662 3.25147,4.07443 9.45584,4.359568 2.77291,0.127435 5.50994,-0.476202 2.77329,-0.636707 5.54537,-2.002893 l -0.2708,5.892424 q -2.72627,1.12515 -5.63183,1.616839 -2.8709,0.493282 -6.0944,0.345138 -8.76931,-0.403015 -13.68057,-6.151514 -4.91126,-5.748498 -4.48116,-15.107054 0.43646,-9.497201 5.88575,-14.700085 5.48396,-5.201292 14.56522,-4.78394 2.94621,0.1354 5.72511,0.888333 2.78048,0.718271 5.35899,2.052481 z m -10.72755,36.916072 q 1.80761,2.236614 2.66063,4.082012 0.85143,1.880059 0.77497,3.543802 -0.14177,3.084858 -2.29313,4.54904 -2.15296,1.498844 -6.24299,1.310876 -1.59442,-0.07328 -3.10996,-0.351333 -1.48088,-0.276465 -2.9522,-0.760897 l 0.20867,-4.540633 q 1.15141,0.643403 2.42273,0.944971 1.26972,0.33623 2.8988,0.411098 2.04502,0.09398 3.12309,-0.690099 1.07807,-0.784083 1.15135,-2.378504 0.0478,-1.039839 -0.64467,-2.599982 -0.65939,-1.523889 -2.12198,-3.709912 z"
           style="fill:#ffffff"
           id="path5978" />
        <path
           d="m 519.79078,53.736579 q -7.60495,-1.426774 -10.8641,-0.237761 -3.25915,1.189013 -4.04612,5.383671 -0.62701,3.342086 1.18449,5.729533 1.852,2.359742 5.63742,3.06993 5.21774,0.978908 9.04621,-2.115583 3.86896,-3.122195 5.02062,-9.26072 l 0.26232,-1.39822 z m 13.00203,-0.243722 -4.08838,21.791762 -6.27494,-1.177248 1.08768,-5.797496 q -2.80109,3.075418 -6.32027,4.14504 -3.51278,1.035519 -8.15078,0.165379 -5.8657,-1.100471 -8.72998,-5.026956 -2.82378,-3.95419 -1.78729,-9.478862 1.20924,-6.445451 6.12042,-8.913172 4.94529,-2.461322 13.50512,-0.855402 l 8.79855,1.650708 0.11517,-0.613853 q 0.81256,-4.33107 -1.61062,-7.221611 -2.38268,-2.918245 -7.53222,-3.884357 -3.27388,-0.614216 -6.5244,-0.412076 -3.25052,0.202141 -6.40948,1.233436 l 1.08768,-5.797496 q 3.69392,-0.683806 7.05526,-0.723943 3.36774,-0.07424 6.437,0.501588 8.28701,1.554736 11.5732,6.619474 3.28619,5.064738 1.64828,13.795085 z"
           style="fill:#ffffff"
           id="path5980" />
      </g>
      <g
         aria-label="F.C."
         id="text6883"
         style="font-size:68.6549px;line-height:1.25;stroke-width:1.71638"
         transform="translate(-6.2171099,8)">
        <path
           d="m 398.63953,539.02331 h 28.76265 v 5.69889 h -21.99102 v 14.75008 h 19.84555 v 5.69889 H 405.41116 V 589.073 h -6.77163 z"
           style="fill:#ffffff"
           id="path9407" />
        <path
           d="m 427.70388,580.55818 h 7.07334 v 8.51482 h -7.07334 z"
           style="fill:#ffffff"
           id="path9409" />
        <path
           d="m 486.40248,542.87844 v 7.14038 q -3.41933,-3.18468 -7.30799,-4.76025 -3.85513,-1.57558 -8.21311,-1.57558 -8.58186,0 -13.14098,5.2631 -4.55911,5.22957 -4.55911,15.15235 0,9.88925 4.55911,15.15235 4.55912,5.22957 13.14098,5.22957 4.35798,0 8.21311,-1.57558 3.88866,-1.57557 7.30799,-4.76025 v 7.07333 q -3.55343,2.41365 -7.54265,3.62048 -3.9557,1.20682 -8.38073,1.20682 -11.36426,0 -17.90123,-6.93924 -6.53696,-6.97276 -6.53696,-19.00748 0,-12.06825 6.53696,-19.00749 6.53697,-6.97276 17.90123,-6.97276 4.49207,0 8.44777,1.20682 3.98923,1.17331 7.47561,3.55343 z"
           style="fill:#ffffff"
           id="path9411" />
        <path
           d="m 497.46504,580.55818 h 7.07333 v 8.51482 h -7.07333 z"
           style="fill:#ffffff"
           id="path9413" />
      </g>
      <g
         id="g4176"
         transform="matrix(0.64972599,0,0,0.6719842,161.46965,120.26398)">
        <circle
           style="fill:#ffffff;stroke:none;stroke-width:5.16159;stroke-miterlimit:4;stroke-dasharray:none"
           id="path1153-3"
           cx="426.24484"
           cy="284.95114"
           r="337.61584" />
        <circle
           style="fill:#ffffff;stroke:#000000;stroke-width:4.99726;stroke-miterlimit:4;stroke-dasharray:none"
           id="path1153"
           cx="427.46945"
           cy="285.55615"
           r="326.86679" />
        <path
           style="fill:#000000"
           d="m 252.12537,555.24916 c -4.10133,-7.32744 -5.52244,-15.65988 -4.98673,-29.23881 0.76233,-19.32294 5.52508,-31.97374 20.42396,-54.25 3.58656,-5.3625 6.86949,-9.75 7.29538,-9.75 0.4259,0 1.55119,-1.18559 2.50065,-2.63464 l 1.72628,-2.63465 -2.3282,1.63074 c -1.28052,0.8969 -6.50167,5.70553 -11.60257,10.68582 -6.43386,6.28174 -10.97029,9.8051 -14.81159,11.50391 -8.08052,3.57359 -9.36107,3.00316 -3.55716,-1.58458 5.12924,-4.05442 12.67684,-13.45571 16.02973,-19.9666 0.99131,-1.925 3.91391,-10.1333 6.49467,-18.24066 5.59227,-17.56794 9.59884,-24.18019 20.0592,-33.10474 6.85302,-5.84684 27.65217,-18.6546 30.29413,-18.6546 0.74951,0 0.0123,2.07587 -1.8644,5.25 -8.36513,14.14809 -13.93259,31.01883 -12.53783,37.99266 2.1431,10.7155 12.01547,8.23393 18.60147,-4.67577 3.29891,-6.46644 3.5,-7.42666 3.5,-16.71247 0,-6.00359 0.38366,-9.72446 0.98221,-9.52573 2.28439,0.75847 5.46471,13.15859 5.49127,21.41058 0.0417,12.94683 -2.67539,18.52935 -17.35526,35.65848 -9.30553,10.85811 -13.61822,17.23578 -13.61822,20.13884 0,3.39455 3.72577,7.46494 6.82258,7.45364 3.99229,-0.0146 12.0541,-4.1093 22.68968,-11.52449 5.21826,-3.6382 9.48774,-6.18645 9.48774,-5.66277 0,0.52368 -0.63621,1.48015 -1.4138,2.12549 -2.04136,1.69418 -5.7152,9.90404 -5.80227,12.9662 -0.14005,4.92577 1.16924,6.92204 5.66639,8.63952 4.07191,1.55507 4.73888,1.55302 10.20319,-0.0314 7.14799,-2.07259 17.02008,-7.48583 23.95885,-13.13753 6.94621,-5.65777 21.17059,-16.17875 23.71407,-17.53998 1.12477,-0.60196 -0.23182,1.5536 -3.01463,4.79012 -10.33117,12.01554 -9.58468,14.17703 3.44281,9.96884 21.6152,-6.98223 36.91174,-14.43409 54.1477,-26.3786 9.09237,-6.30101 23.02605,-19.07683 26.39938,-24.20566 1.58982,-2.41716 1.69354,-2.43755 3.13004,-0.6153 1.81265,2.29941 8.06264,1.89813 13.95012,-0.89566 5.07746,-2.40942 14.02428,-10.70075 18.27583,-16.93685 6.07574,-8.9118 2.87181,-0.47135 -5.21626,13.74176 -7.59298,13.3431 -9.43161,18.98736 -7.41353,22.75817 1.07769,2.01369 1.74642,2.16093 7.82525,1.72301 3.85468,-0.2777 8.50507,-1.37833 11.07041,-2.6201 2.43296,-1.17768 4.65723,-1.90758 4.94282,-1.62198 1.11925,1.11925 -11.95123,13.01805 -22.86638,20.81657 -22.13362,15.81375 -37.11686,24.29722 -55.34906,31.3385 -10.32184,3.9863 -13.75275,4.10575 -8.81786,0.30701 10.8048,-8.3172 22.16692,-20.20042 22.16692,-23.18351 0,-1.20878 -4.655,2.10575 -11.85534,8.44143 -17.8322,15.69081 -43.19153,27.49098 -67.14465,31.24367 -12.81109,2.00708 -29.92939,6.00826 -34.85851,8.14771 -6.56526,2.84961 -15.57511,5.34121 -19.14149,5.29343 l -3.5,-0.0469 4.85614,-1.97046 c 6.75089,-2.73928 13.43773,-7.53475 15.71563,-11.27047 4.41157,-7.23491 1.21407,-9.75801 -12.40168,-9.78593 -7.9561,-0.0163 -10.89731,0.46101 -18.06597,2.93195 -15.23407,5.25096 -30.61658,16.24998 -36.30781,25.96134 -1.47616,2.51887 -2.85791,4.05783 -3.07055,3.41991 -0.82227,-2.46681 2.14915,-8.40067 8.44401,-16.8625 3.60658,-4.84813 7.6269,-11.06478 8.93405,-13.81478 2.67936,-5.63687 3.12209,-11.00746 0.97532,-11.83126 -2.36223,-0.90647 -13.10752,6.37032 -21.1514,14.32388 -15.00331,14.83486 -21.22925,30.60265 -18.53782,46.94879 0.58333,3.54277 0.92677,6.57524 0.76319,6.73881 -0.16357,0.16357 -1.23912,-1.38506 -2.3901,-3.44141 z m 226.73698,-69.96851 c 0,-0.46625 2.5875,-2.39394 5.75,-4.28375 3.1625,-1.88982 8.45,-5.27986 11.75,-7.53342 3.3,-2.25356 8.7,-5.61338 12,-7.46626 23.72095,-13.31884 55.1965,-40.36407 65.74006,-56.48687 5.27733,-8.06987 9.83965,-16.75362 9.15949,-17.43379 -0.25704,-0.25703 -5.73959,4.7478 -12.18344,11.12186 -6.54791,6.47698 -15.24339,13.8944 -19.71232,16.815 -7.39571,4.83335 -26.51007,14.99693 -28.20432,14.99693 -0.40527,0 1.81061,-2.5875 4.92418,-5.75 10.23199,-10.39277 15.85098,-22.56922 17.18954,-37.25 0.9636,-10.56842 -1.95429,-18.37262 -7.62491,-20.39365 -6.84432,-2.43935 -13.77953,2.93089 -28.54657,22.10489 -10.18177,13.22033 -16.24171,19.89391 -16.24171,17.88636 0,-0.23064 2.1375,-4.83933 4.75,-10.24154 4.25153,-8.79146 4.78618,-10.66972 5.09478,-17.89839 0.28693,-6.72096 -0.0264,-8.86592 -1.86742,-12.78244 -2.22318,-4.72961 -6.46328,-8.67523 -9.32271,-8.67523 -3.28284,0 -2.39922,-1.85983 2.25954,-4.75588 7.15233,-4.44613 12.56666,-11.87616 15.56059,-21.35364 1.38887,-4.39655 2.52522,-9.06894 2.52522,-10.38308 0,-2.15919 1.90235,-4.74695 2.07044,-2.81642 0.0388,0.44496 0.17283,3.56176 0.29797,6.92621 0.5007,13.46137 7.08328,14.94625 22.66502,5.11273 8.84137,-5.57972 17.26195,-12.28165 22.38864,-17.81908 3.06786,-3.31366 5.57793,-5.62677 5.57793,-5.14025 0,0.48653 -1.14925,3.71292 -2.5539,7.16977 -1.40464,3.45685 -2.32005,6.51902 -2.03424,6.80483 0.80553,0.80553 14.11177,-7.1225 24.08814,-14.35203 4.95,-3.58709 10.8,-7.68385 13,-9.10391 10.51036,-6.78424 22.67334,-20.25803 30.72768,-34.03925 3.2948,-5.6375 6.46301,-10.25 7.04047,-10.25 1.51364,0 8.90416,8.29247 15.14763,16.99623 14.5445,20.27598 26.2895,53.20064 27.1124,76.00377 0.3999,11.08201 0.3661,11.31827 -0.9307,6.5 -1.9216,-7.14023 -5.7627,-16.89344 -9.8457,-25 -6.0405,-11.99319 -9.9375,-14.94656 -6.3664,-4.82477 4.4754,12.68444 5.771,21.18637 5.3513,35.11531 -0.9005,29.88868 -7.1818,51.95715 -20.5665,72.25771 -7.807,11.84095 -8.64632,11.20804 -2.24628,-1.69384 7.03358,-14.17901 8.06318,-17.63104 8.07048,-27.05736 0.01,-11.38205 -3.2898,-15.68517 -8.86455,-11.564 -3.96782,2.93324 -6.87547,8.95184 -9.60992,19.89182 -2.98824,11.9553 -5.40156,18.3904 -9.51004,25.35839 -6.53554,11.0843 -11.6006,17.77902 -19.04319,25.17021 -7.36116,7.31034 -18.4665,15.68005 -19.47152,14.67502 -0.26108,-0.26108 2.78926,-4.58554 6.77854,-9.60992 3.98927,-5.02439 8.75674,-11.61604 10.59438,-14.64812 3.93196,-6.48772 8.42015,-17.20577 7.88154,-18.8216 -0.2077,-0.6231 -2.37384,0.68996 -4.81363,2.91791 -7.74117,7.06904 -21.16362,16.35144 -29.43599,20.3567 -14.13555,6.84406 -39.76115,14.00327 -76.96382,21.50196 -9.88011,1.99147 -18.31761,3.83949 -18.75,4.10673 -0.4324,0.26724 -0.78618,0.10441 -0.78618,-0.36185 z M 221.04777,479.637 c 7.30263,-5.94868 16.60289,-18.24243 22.12871,-29.25131 7.56377,-15.06901 16.42062,-47.37534 12.98805,-47.37534 -0.54051,0 -2.10636,1.57919 -3.47966,3.50931 -3.36967,4.73594 -12.73299,11.86855 -20.35699,15.50714 -8.58085,4.09527 -10.95697,3.89142 -5.37963,-0.46152 5.79431,-4.52227 11.57269,-11.52887 13.96139,-16.92891 2.87135,-6.49116 4.9495,-17.73712 4.97854,-26.9414 0.0199,-6.29683 0.62398,-9.79918 2.61922,-15.18462 2.88747,-7.79374 3.62626,-15.55676 1.54759,-16.26161 -2.0568,-0.69742 -8.41013,6.70377 -15.33645,17.86591 -8.09616,13.04738 -14.3999,19.94123 -22.7946,24.92842 -3.67286,2.182 -6.97608,3.96728 -7.3405,3.96728 -0.36442,0 1.78649,-4.62726 4.7798,-10.28279 3.90875,-7.38514 6.31302,-13.65511 8.53194,-22.25 3.63485,-14.07941 6.57097,-20.9362 12.10187,-28.26183 2.2251,-2.94712 3.82869,-5.57533 3.56355,-5.84047 -0.93384,-0.93384 -8.15945,2.74769 -13.54013,6.89886 -10.18722,7.85937 -17.27905,20.40539 -18.787,33.23568 -1.54052,13.10745 -3.06165,1.87524 -2.43759,-17.99945 0.12089,-3.85 1.13161,-10.15 2.24603,-14 2.18568,-7.55083 11.65248,-26.93841 15.29018,-31.31361 3.30782,-3.97843 7.74661,-11.30338 7.1881,-11.86189 -1.74836,-1.74837 -14.73417,11.64145 -19.1234,19.71837 -2.45722,4.52171 -3.02631,5.07088 -3.31999,3.20379 -0.42092,-2.67608 2.23296,-12.2464 4.77422,-17.21656 0.99272,-1.94156 4.16683,-6.4551 7.05358,-10.0301 6.61235,-8.18888 12.26889,-20.0176 12.28166,-25.68292 0.006,-2.46467 -1.15769,-6.77784 -2.83181,-10.5 -3.31306,-7.36608 -4.50285,-19.22442 -2.52895,-25.20539 1.49511,-4.53023 8.55384,-11.86737 16.78686,-17.44899 6.42708,-4.35727 7.85469,-7.16529 4.57578,-9.00026 -1.99888,-1.11863 -6.20028,0.15564 -11.55591,3.50487 -2.05157,1.28298 -3.9799,2.33269 -4.28518,2.33269 -2.59622,0 12.71963,-16.76028 20.63625,-22.58245 6.42649,-4.72628 17.35374,-9.96754 24.80779,-11.89908 6.81836,-1.76682 13.19237,-1.70204 13.79686,0.14021 0.20911,0.63728 -3.04679,4.66441 -7.23534,8.94918 -4.18854,4.28477 -9.99616,11.63906 -12.90582,16.34288 -9.86148,15.94225 -11.6216,20.85592 -5.81806,16.24206 4.12401,-3.27862 11.26226,-7.4975 11.79099,-6.96877 0.25686,0.25686 -2.26046,3.79903 -5.59404,7.87149 -9.95224,12.15813 -14.728,22.20386 -16.78166,35.29991 -0.8806,5.6155 0.0855,8.43113 1.88129,5.48269 1.72878,-2.83849 10.3087,-12.83981 10.68886,-12.45964 0.21761,0.21761 -0.2569,1.67498 -1.05447,3.23859 -2.99313,5.86795 -6.53182,18.2468 -6.56306,22.95858 -0.0675,10.17994 2.84204,28.57816 5.96442,37.71557 5.27575,15.43908 6.49688,16.21964 6.05545,3.87071 -0.33133,-9.26893 1.41472,-28.63726 2.79503,-31.00425 0.7223,-1.23862 0.99827,0.19517 1.02058,5.30232 0.0336,7.68422 2.03144,19.36877 4.56869,26.71995 1.60799,4.65887 7.19617,10.78005 9.84136,10.78005 2.57938,0 4.41702,3.60538 5.09695,10 0.38012,3.575 0.89236,8.3 1.1383,10.5 0.87003,7.78268 4.69054,19.73092 7.76758,24.29229 1.71455,2.54163 6.04236,7.08108 9.61736,10.08767 3.575,3.00659 6.62958,5.77731 6.78796,6.15716 0.15838,0.37985 -2.37127,1.68512 -5.62143,2.9006 -5.87146,2.19578 -15.7085,8.36253 -24.02697,15.06228 -8.58105,6.91123 -16.69382,19.78159 -21.11658,33.5 -2.97768,9.23611 -9.21707,21.75085 -14.0075,28.09572 -5.91402,7.83306 -26.22844,22.33572 -31.35715,22.38616 -1.2393,0.0122 -0.0857,-1.41229 3.52708,-4.35523 z m 127.06459,-1.28893 c -2.50187,-1.00953 -1.1652,-6.97577 3.75771,-16.77256 4.8823,-9.71595 5.98142,-13.83581 4.01536,-15.0509 -3.036,-1.87635 -18.57785,6.66757 -32.02307,17.60427 -6.87604,5.59315 -8.59822,6.69221 -7.49943,4.78598 1.34991,-2.34188 7.54399,-9.92049 15.69634,-19.20487 4.29856,-4.89545 9.18625,-11.76748 11.01522,-15.48726 3.25895,-6.62808 3.28787,-6.81454 3.28787,-21.19964 v -14.51274 l -3.48896,-6.43693 c -2.80106,-5.1678 -5.40828,-8.01379 -13.22371,-14.43472 -5.35412,-4.39879 -10.42159,-9.44518 -11.26105,-11.2142 -4.68874,-9.88079 2.31516,-23.40736 13.71059,-26.47919 4.69818,-1.26647 12.2701,-0.69337 18.26613,1.3825 4.02705,1.3942 5.90032,3.68254 3.01459,3.68254 -0.90699,0 -2.61044,0.51451 -3.78544,1.14335 -1.9588,1.04832 -1.64264,1.31843 3.80415,3.25 6.15815,2.18383 7.23949,3.71531 3.2828,4.64936 -2.565,0.60551 -1.76482,1.3341 2.61991,2.38552 4.16147,0.99789 8.31888,4.20291 10.21959,7.87847 1.51101,2.92196 1.50288,3.69138 -0.11276,10.67116 -0.95765,4.13718 -2.67354,9.65833 -3.81309,12.26923 -1.13954,2.6109 -1.81785,5.00115 -1.50734,5.31165 0.31051,0.31051 2.18682,-0.8598 4.16958,-2.60068 1.98275,-1.74088 3.60501,-2.91744 3.60501,-2.61457 0,0.30288 -1.125,2.66652 -2.5,5.25253 -2.03083,3.81947 -2.5,6.11895 -2.5,12.25292 0,8.46907 0.55901,8.51738 4.92907,0.42595 1.7519,-3.24375 3.21891,-4.77489 4.57489,-4.77489 2.66906,0 3.03336,3.18022 1.11425,9.72694 -0.83842,2.86011 -1.31063,5.41397 -1.04936,5.67524 0.26126,0.26127 2.50219,-0.50984 4.97984,-1.71357 5.81056,-2.82299 6.67391,-2.77126 5.26743,0.31562 -0.62755,1.37732 -0.88195,2.76328 -0.56532,3.0799 0.75301,0.75301 5.4129,-2.16837 9.48422,-5.94587 3.89796,-3.61665 5.30124,-2.9023 2.37407,1.20854 -1.16,1.62907 -2.10909,3.28622 -2.10909,3.68257 0,1.3492 5.92943,-0.45973 10.0656,-3.07078 2.26785,-1.43163 4.411,-2.31532 4.76256,-1.96376 0.35156,0.35156 -0.40188,2.44812 -1.67431,4.65902 -1.27244,2.2109 -2.10136,4.23197 -1.84206,4.49128 0.69734,0.69733 12.51212,-4.45338 16.62333,-7.24702 4.69137,-3.18786 5.13711,-1.41908 1.0697,4.2447 -1.76907,2.46338 -2.99238,4.70297 -2.71848,4.97687 0.74815,0.74815 12.91873,-4.98738 18.4011,-8.67174 2.6469,-1.77882 6.56637,-4.85731 8.70993,-6.84108 2.73745,-2.5334 3.66643,-3.01163 3.1214,-1.60686 -1.5214,3.92128 -1.75543,6.5 -0.5899,6.5 2.09221,0 6.14844,-4.92721 8.7697,-10.6528 1.97705,-4.31844 2.77188,-5.25791 3.43934,-4.06523 0.47744,0.85313 0.75422,2.55159 0.61507,3.77436 -0.47536,4.17726 2.14044,3.08749 4.69647,-1.9566 1.73335,-3.42059 2.55054,-6.652 2.55054,-10.08554 0,-4.88977 0.0804,-5.03211 2.5,-4.42483 2.41186,0.60533 2.49916,0.45616 2.47614,-4.23095 -0.0131,-2.67213 -0.41944,-6.56237 -0.90294,-8.64499 -0.78686,-3.38937 -0.69117,-3.72694 0.91225,-3.21804 1.61637,0.51302 1.77781,-0.13278 1.65294,-6.61217 -0.0954,-4.95092 0.24977,-7.31567 1.11161,-7.6153 0.82036,-0.28521 1.25,0.60555 1.25,2.5916 0,3.82762 3.12859,9.37143 8.54437,15.14049 2.32345,2.475 4.72646,5.48292 5.34004,6.68426 2.58996,5.07098 0.18775,17.50578 -5.05504,26.16683 -5.03063,8.31058 -23.3154,26.13323 -35.72477,34.82191 -13.87766,9.71671 -37.184,22.327 -41.26479,22.327 -0.52293,0 2.56169,-2.9601 6.85471,-6.578 7.42444,-6.25688 18.30548,-17.9226 18.30548,-19.62556 0,-1.19047 -0.63225,-1.01637 -5.78324,1.59251 -2.59422,1.31392 -10.11676,3.81207 -16.71676,5.55144 -6.59999,1.73936 -14.24999,4.09139 -16.99999,5.22672 -5.32511,2.19845 -14.99306,8.77672 -20.09184,13.67087 -13.3844,12.84727 -24.34659,18.84476 -30.15816,16.49974 z m 32.24452,-94.08772 c -5.89251,-7.47168 -7.19619,-11.69833 -5.66041,-18.35167 1.81016,-7.84204 1.46064,-10.36257 -2.87501,-20.73296 -3.61528,-8.64732 -4.14151,-10.98199 -4.99608,-22.16537 -1.08336,-14.17754 -1.50249,-15.98094 -5.81026,-25 -1.70753,-3.575 -4.26057,-9.65 -5.67343,-13.5 -1.41286,-3.85 -3.56119,-9.475 -4.77408,-12.5 -1.48182,-3.69572 -2.21853,-7.70029 -2.24573,-12.20714 -0.0223,-3.68893 -0.35976,-7.02643 -0.75,-7.41667 -0.39024,-0.39024 -0.70952,-2.18023 -0.70952,-3.97776 0,-4.71482 -1.37824,-7.78897 -8.03198,-17.91523 -7.54078,-11.47623 -8.07317,-13.92279 -4.39464,-20.19506 2.00082,-3.4116 2.80857,-6.14186 2.80968,-9.4969 0.002,-5.74515 -2.54193,-9.31176 -5.50893,-7.72388 -1.03077,0.55165 -1.87413,1.61232 -1.87413,2.35704 0,2.00161 -3.91561,6.4813 -3.99945,4.5756 -0.0363,-0.825 -0.46334,-4.58351 -0.949,-8.35225 -1.11992,-8.6906 0.64774,-15.20226 5.62125,-20.70734 4.55299,-5.03961 5.75756,-5.03319 4.9485,0.0264 -0.78934,4.93625 0.71171,9.41929 6.18429,18.47004 4.47487,7.4007 4.85264,9.55896 3.04434,17.39292 -1.07768,4.66877 -0.9804,5.27187 1.54552,9.58204 1.48258,2.52982 4.44375,6.43736 6.58038,8.68343 4.46852,4.69739 5.24721,4.66843 14.02417,-0.52169 5.99962,-3.54777 14.61182,-7.07182 19.79064,-8.09817 4.31429,-0.85502 7.17272,1.06517 10.73432,7.21096 1.53428,2.64751 4.09657,6.32341 5.69397,8.16866 4.37342,5.052 2.52164,4.99616 -3.14062,-0.0947 -10.21461,-9.1838 -16.61467,-10.30791 -27.34713,-4.80324 -6.73059,3.45212 -13.68447,9.42298 -12.43247,10.67498 0.36411,0.3641 3.44118,-1.20416 6.83794,-3.48502 3.39675,-2.28086 7.14879,-4.14702 8.33785,-4.14702 1.87084,0 10.94078,5.91805 10.20208,6.65676 -0.14845,0.14844 -2.4722,-0.3929 -5.16389,-1.20298 -6.34049,-1.90821 -10.85177,-1.02795 -14.01833,2.73529 -1.3719,1.63041 -2.49436,3.30941 -2.49436,3.7311 0,2.67951 4.44349,12.85197 7.05334,16.14717 1.71309,2.16297 2.70535,3.93266 2.205,3.93266 -1.11167,0 -5.25834,-4.30644 -5.25834,-5.46095 0,-1.26573 -6.99989,-11.53905 -7.86232,-11.53905 -2.583,0 -7.13768,6.42743 -7.13768,10.07247 0,5.63031 13.58245,20.7381 24.5,27.2514 3.85,2.29687 8.125,4.73417 9.5,5.41621 l 2.5,1.24009 -2.5,-0.57103 c -7.63872,-1.74478 -16.78459,-7.35831 -24.83695,-15.24437 -4.58532,-4.49062 -8.78737,-8.16477 -9.33789,-8.16477 -1.43658,0 -0.0575,7.20837 2.92246,15.27523 2.7455,7.43222 7.3814,12.3933 15.7094,16.81129 2.49864,1.32552 4.54298,2.70047 4.54298,3.05543 0,0.85387 -8.14969,-1.16124 -9.75,-2.41081 -0.7312,-0.57094 -1.25,-0.59159 -1.25,-0.0497 0,2.22976 8.07021,8.30402 20.5,15.42988 5.34511,3.06429 14.11899,2.87317 25.41881,-0.55368 9.58402,-2.90658 12.08118,-4.69399 12.08118,-8.64753 0,-5.24694 -1.79763,-7.68244 -9.19275,-12.45467 -9.34397,-6.02987 -20.67319,-16.54465 -23.52907,-21.8376 -3.03611,-5.62698 -2.95851,-7.60562 0.18253,-4.65476 1.7069,1.60355 4.768,2.71294 9.99259,3.62147 5.53464,0.96245 10.34744,2.77992 18.14974,6.85394 11.64697,6.08153 12.18322,6.13121 20.6278,1.91131 5.75777,-2.87725 15.68466,-5.31286 21.76916,-5.34118 2.475,-0.0115 5.78894,-0.69317 7.36431,-1.51478 1.57537,-0.82161 3.03787,-1.49384 3.25,-1.49384 2.30715,0 -4.33855,9.92515 -9.0539,13.52172 -1.86162,1.41993 -7.13679,4.12914 -11.72259,6.02047 -9.61423,3.96522 -12.83782,6.99835 -12.83782,12.07932 0,5.35652 1.61133,7.32769 8.56882,10.48236 7.81689,3.54435 13.79697,3.73636 24.36739,0.78237 8.97417,-2.50789 12.60787,-4.22019 16.31379,-7.68749 3.24858,-3.03941 3.6558,-1.62 0.63646,2.21846 -3.22067,4.09442 -4.88646,11.01951 -4.88646,20.31415 0,8.04585 -0.22779,8.90192 -5.21287,19.59107 -4.74809,10.18098 -5.26076,11.98001 -5.75,20.17757 -0.42439,7.11091 -1.00071,9.6499 -2.74574,12.09625 -3.21659,4.50932 -9.86422,10.25843 -12.67841,10.96475 -1.34059,0.33647 -14.57063,0.11262 -29.40008,-0.49744 -18.45902,-0.75938 -27.81108,-0.78663 -29.65286,-0.0864 -1.47962,0.56255 -4.90435,1.02282 -7.61051,1.02282 -4.79747,0 -5.03346,-0.14351 -9.455,-5.75 z m 20.49638,-10.73904 c 1.98837,-2.39584 0.3393,-8.17108 -5.21424,-18.26096 -7.02297,-12.75956 -8.77666,-12.37379 -8.77666,1.93066 0,8.66217 1.67427,13.77735 5.35287,16.35395 2.69878,1.8903 7.0595,1.87836 8.63803,-0.0236 z m 44.00909,0.48904 c 0,-0.55 -0.45,-1 -1,-1 -0.55,0 -1,0.45 -1,1 0,0.55 0.45,1 1,1 0.55,0 1,-0.45 1,-1 z m 11.78342,-1.47122 c 1.99069,-1.67505 3.46519,-4.35412 4.57673,-8.3156 1.99309,-7.10332 2.21845,-15.57271 0.39822,-14.96597 -2.226,0.742 -14.75837,17.05439 -14.75837,19.20981 0,2.93036 2.74963,6.54298 4.97998,6.54298 1.02661,0 3.18816,-1.11205 4.80344,-2.47122 z m -13.96328,-2.28325 c 0.42685,-3.00599 -2.63386,-4.22077 -4.43349,-1.75963 -1.139,1.55767 -1.55544,1.61891 -2.9784,0.43795 -0.90985,-0.7551 -3.73642,-1.39791 -6.28126,-1.42846 -2.54484,-0.0306 -5.07699,-0.33104 -5.62699,-0.66776 -1.88645,-1.15491 -8.96405,0.62794 -9.29399,2.34117 -0.33376,1.73305 0.13733,1.79682 16.04331,2.172 3.71213,0.0876 6.74963,0.52659 6.75,0.97562 3.7e-4,0.44903 1.23818,0.67403 2.75068,0.5 1.97086,-0.22677 2.8407,-0.95517 3.07014,-2.57089 z m -32.82013,-0.68651 c 0,-3.14783 -1.77032,-4.21727 -3.73271,-2.25489 -1.9535,1.95351 -0.95994,4.69587 1.70133,4.69587 1.48704,0 2.03138,-0.6541 2.03138,-2.44098 z m 4.54999,-3.43773 c 1.38488,-1.28095 8.2053,-2.32624 8.80865,-1.35 0.28304,0.45797 4.03063,0.66954 8.32798,0.47017 4.29735,-0.19938 9.30416,-0.36528 11.12624,-0.36869 2.58896,-0.005 4.11856,-0.88725 7,-4.03826 6.01732,-6.58025 11.26457,-15.03628 10.15794,-16.36968 -0.88764,-1.06954 -0.34832,-14.38511 0.62301,-15.3815 0.2234,-0.22916 0.40618,2.35834 0.40618,5.75 0,4.27031 0.3844,6.16457 1.25,6.15984 2.81983,-0.0154 11.99103,-17.29122 12.14843,-22.88401 0.11217,-3.98585 0.61525,-3.85374 -8.89843,-2.33673 l -5,0.79728 0.20458,5.83639 c 0.23195,6.61722 -0.53007,6.55288 -2.70458,-0.22834 -1.39805,-4.35982 -1.73789,-4.6841 -5,-4.77104 -1.925,-0.0513 -5.9427,0.27566 -8.92823,0.72659 -10.16607,1.53544 -15.07177,9.54482 -15.07177,24.60721 0,4.6637 -0.36785,7.15017 -1,6.75948 -0.55,-0.33992 -1.00781,-2.72898 -1.01736,-5.30902 -0.01,-2.58004 -0.67574,-7.84098 -1.48042,-11.69098 -1.14388,-5.47289 -2.12525,-7.59993 -4.49842,-9.75 -3.15989,-2.86283 -4.99724,-3.23835 -13.75379,-2.81104 -3.3001,0.16104 -5.25,-0.15146 -5.25,-0.84139 0,-2.04647 -2.84435,-1.11087 -5.02359,1.65243 -1.95516,2.47916 -2.13791,3.73486 -1.85554,12.75 0.17227,5.5 -0.0361,11.00088 -0.46302,12.22418 -0.58803,1.68489 0.20797,3.90937 3.28296,9.17447 2.23255,3.82266 4.05919,7.44841 4.05919,8.05721 0,1.6927 2.61373,2.32124 4.79599,1.15332 1.54032,-0.82435 2.32806,-0.62959 3.73313,0.923 1.98509,2.19351 2.6362,2.36987 4.02087,1.08911 z m 52.37589,-21.81506 c 1.2574,-4.55391 0.64998,-5.32654 -2.05836,-2.61821 -1.43109,1.43109 -1.86793,2.73537 -1.40483,4.19445 1.0045,3.16491 2.31933,2.56648 3.46319,-1.57624 z m -78.41617,-0.33682 c 0.64724,-2.03929 -3.30663,-10.10783 -5.66852,-11.56756 -1.3668,-0.84473 -0.66798,6.58075 1.02094,10.84815 1.27856,3.23055 3.73013,3.61004 4.64758,0.71941 z m 4.25344,-13.58194 -0.26315,-12.61254 -6.26535,-2.26713 c -3.44595,-1.24693 -6.47041,-1.93535 -6.72103,-1.52984 -1.58907,2.57117 10.41766,29.02204 13.17385,29.02204 0.18636,0 0.22042,-5.67564 0.0757,-12.61253 z m 42.02094,-16.80337 c 12.86581,0.0881 15.26289,-1.20703 4.56803,-2.46805 -3.2198,-0.37965 -6.40692,-1.03188 -7.08249,-1.4494 -0.67557,-0.41753 -2.25007,-0.21231 -3.49889,0.45604 -1.24881,0.66835 -4.44524,1.32628 -7.10316,1.46207 -5.24634,0.26804 -6.22215,0.70893 -5.20644,2.35238 0.40298,0.65203 1.71201,0.77571 3.35014,0.31653 1.47879,-0.41452 8.21656,-0.71582 14.97281,-0.66957 z m -78.60331,-69.34686 c 1.6566,-2.40778 2.79707,-4.59273 2.53437,-4.85542 -0.71562,-0.71563 -8.70123,8.90396 -8.70869,10.49062 -0.009,2.01745 2.45963,-0.23607 6.17432,-5.6352 z m -41.18078,128.04579 c -5.06841,-1.88907 -11.12375,-7.7943 -13.93995,-13.59437 -4.29019,-8.83581 -5.17396,-15.7515 -5.90841,-46.23444 -0.5721,-23.74434 -0.87304,-27.38346 -2.46537,-29.81209 -0.99756,-1.52147 -2.34756,-2.60816 -3,-2.41487 -0.65245,0.19329 -2.4931,2.94839 -4.09033,6.12244 -2.16792,4.30814 -3.02509,7.65685 -3.38151,13.21065 -0.26259,4.09181 -0.85019,7.43965 -1.30576,7.43965 -1.94233,0 -5.11598,-13.8183 -5.62691,-24.5 -0.64077,-13.3962 0.74646,-23.02412 4.62861,-32.1243 1.61157,-3.7777 2.73275,-7.06591 2.49152,-7.30714 -0.79958,-0.79959 -8.45765,7.3571 -11.20207,11.93144 -1.4849,2.475 -3.89466,7.65 -5.35501,11.5 -2.00059,5.27423 -2.83347,6.55486 -3.37831,5.19444 -1.83974,-4.59367 2.95549,-20.5268 11.12658,-36.97035 2.99437,-6.02589 6.3359,-12.08964 7.42562,-13.47499 6.84601,-8.70329 -4.967,-3.26625 -14.08799,6.48413 -7.00923,7.49288 -7.9482,5.95963 -2.18071,-3.5609 5.19553,-8.5764 10.90668,-14.95079 20.79493,-23.20986 10.2667,-8.57517 11.25675,-11.48613 3.65822,-10.75601 -2.63827,0.2535 -7.39773,1.65164 -10.57658,3.10696 -7.2922,3.33848 -6.84297,1.74984 1.45564,-5.14763 3.52979,-2.93381 8.49505,-7.06939 11.03393,-9.19017 2.53887,-2.12078 6.03405,-5.99664 7.76707,-8.61301 2.68562,-4.05455 2.94626,-4.96171 1.76495,-6.14302 -1.0984,-1.0984 -2.1913,-1.16238 -5.26707,-0.30837 -6.56296,1.82227 -7.11341,1.20325 -1.69392,-1.90495 2.85294,-1.63622 6.45294,-4.63767 8,-6.66987 2.53688,-3.33243 2.80828,-4.45436 2.76643,-11.43605 l -0.0464,-7.74114 2.88932,1.49413 c 1.58913,0.82177 3.13463,1.24883 3.43444,0.94902 0.29981,-0.29981 -4.01475,-5.4516 -9.58792,-11.44843 -11.61943,-12.50273 -15.93788,-14.99121 -27.53214,-15.86526 -8.46206,-0.63793 -16.67474,1.20036 -25.68677,5.74963 -3.36959,1.70096 -6.34096,2.87822 -6.60304,2.61613 -0.5275,-0.5275 8.66826,-7.56621 15.6789,-12.00111 11.89201,-7.52283 18.2477,-17.713079 13.50345,-21.650459 -2.28906,-1.89975 -9.66658,0.35431 -16.62435,5.07924 -3.23351,2.19583 -5.8791,3.61 -5.8791,3.14259 0,-0.46741 3.16974,-4.28983 7.04387,-8.49426 8.01142,-8.69448 19.3101,-16.70985 27.13386,-19.24898 6.35061,-2.06103 7.80602,-3.16672 5.38911,-4.09418 -1.59766,-0.61307 -5.59416,0.087 -12.56684,2.20145 -2.29323,0.69541 -2.38089,0.61296 -1.05983,-0.99691 1.63788,-1.99595 10.83484,-6.82712 17.25072,-9.06182 5.67407,-1.97631 16.74649,-1.93163 23.97559,0.0968 5.36493,1.50533 5.98467,1.50424 8.30274,-0.0146 3.16717,-2.0752 5.93032,-7.4706 8.41166,-16.4248 1.94117,-7.00498 4.76322,-13.84932 6.03419,-14.63483 0.36953,-0.22838 0.31785,3.24692 -0.11485,7.72289 -1.00121,10.35691 0.25254,11.92352 3.55899,4.44706 4.59455,-10.38907 18.24186,-27.7224204 21.8271,-27.7224204 1.33809,0 1.22038,0.95072 -0.81042,6.5454904 -3.57923,9.86066 -2.90438,23.66154 1.18573,24.24852 2.85438,0.40964 4.92124,-2.26441 7.3525,-9.51247 2.62755,-7.83325 2.62509,-11.76539 -0.0118,-18.81303 -1.15371,-3.0835804 -1.87597,-5.8282004 -1.60501,-6.0991604 1.7439,-1.74391 18.35832,18.4325004 25.22303,30.6306404 2.01189,3.575 4.70919,9.65 5.994,13.5 2.61579,7.8384 4.91609,19.4029 4.03474,20.28425 -0.31712,0.31711 -2.09359,-1.07961 -3.94771,-3.10384 -3.60936,-3.94051 -5.32882,-4.55427 -6.22393,-2.22165 -1.487,3.87505 7.90127,20.96859 17.59798,32.04124 3.37157,3.85 6.59044,7.821559 7.15304,8.825689 0.91775,1.638 0.80071,1.70678 -1.13843,0.66898 -3.01016,-1.61098 -3.52097,-0.63341 -2.02986,3.8847 2.01716,6.11207 0.79929,6.70954 -2.94989,1.44717 -4.26024,-5.97975 -12.96392,-15.326539 -14.27196,-15.326539 -0.55289,0 -0.66324,0.96959 -0.25606,2.25 2.31427,7.277449 4.48587,16.691519 4.50065,19.510719 0.017,3.23971 -0.0425,3.20067 -9.2329,-6.05822 -6.05763,-6.10279 -11.33572,-10.40274 -15.29346,-12.459279 -6.09097,-3.16502 -14.15986,-5.54461 -15.65913,-4.61802 -0.44563,0.27542 0.94219,2.60992 3.08406,5.18778 3.99813,4.811979 7.11853,10.185469 7.11853,12.258489 0,0.64393 -3.23761,-1.88341 -7.19468,-5.61631 -3.95707,-3.7329 -7.3569,-6.300429 -7.55517,-5.705619 -0.19827,0.594819 1.01434,3.657849 2.69468,6.806739 3.63719,6.81593 4.06536,10.05472 1.12091,8.4789 -2.90346,-1.55388 -3.06543,-1.38423 -3.06948,3.21482 -0.005,5.59828 -2.45146,9.39675 -10.17161,15.79241 -7.34711,6.0866 -7.90333,6.95759 -4.44317,6.95759 3.22998,0 5.14363,3.1503 3.63079,5.97708 -1.44979,2.70895 -3.01402,3.40628 -14.43738,6.43618 -5.45881,1.44788 -10.51636,3.1232 -11.23899,3.72293 -1.7446,1.44789 -0.63421,3.09326 1.60738,2.38181 2.31712,-0.73542 5.05672,0.34772 5.05672,1.99925 0,0.7168 -3.56475,4.25247 -7.92166,7.85703 -11.60388,9.60012 -17.8305,18.60652 -8.46296,12.2411 2.07401,-1.40932 3.93789,-2.39544 4.14196,-2.19138 0.87653,0.87654 -7.00058,14.69765 -11.14163,19.54901 -4.54568,5.32541 -8.61571,12.67218 -8.61571,15.55214 0,1.21925 0.7906,1.00973 3.73213,-0.9891 4.05659,-2.75652 7.18627,-3.21765 9.06787,-1.33605 1.72202,1.72202 1.49045,4.66822 -0.89552,11.39345 -1.54493,4.35464 -2.1104,8.42019 -2.15217,15.47342 -0.0752,12.69526 1.50269,15.79454 3.2139,6.31278 2.77475,-15.37475 5.48267,-21.0109 9.70939,-20.2087 1.15178,0.2186 2.34337,1.98389 3.23205,4.78813 1.26138,3.98034 1.18257,5.94411 -0.75848,18.89959 -1.19137,7.95174 -1.93266,14.69118 -1.64731,14.97652 0.28534,0.28534 1.17484,-0.34834 1.97667,-1.40819 1.31035,-1.73202 1.46108,-0.95735 1.48967,7.65622 0.032,9.63759 1.67389,20.91678 3.04485,20.91678 0.40532,0 1.06994,-1.4625 1.47693,-3.25 l 0.73998,-3.25 0.90438,4 c 1.80756,7.99478 3.94024,14.5 4.75369,14.5 0.45769,0 1.09081,-2.50608 1.40694,-5.56907 0.91819,-8.89641 4.81674,-11.26749 8.51853,-5.18093 4.72317,7.76595 11.14271,29.95013 11.17709,38.625 0.009,2.1482 -0.30095,2.3125 -3.24059,1.72049 -15.2242,-3.06599 -25.90816,-1.24539 -33.47785,5.7048 -8.81132,8.09021 -10.54766,17.38639 -5.31382,28.44971 1.62621,3.4375 2.86335,6.21447 2.74921,6.17105 -0.11415,-0.0434 -0.88254,-0.33053 -1.70754,-0.63802 z m 5.84217,-242.16432 c 1.12289,-0.71169 1.12289,-1.2043 0,-3.0152 -1.12991,-1.82221 -1.12144,-2.3019 0.0535,-3.0331 0.76764,-0.47771 1.14466,-1.5228 0.83781,-2.32243 -0.30685,-0.79963 0.29322,-2.18263 1.33349,-3.07333 2.52218,-2.15956 1.51252,-4.32828 -2.65545,-5.70383 -1.87631,-0.61926 -3.41152,-1.55702 -3.41152,-2.08391 0,-0.52689 2.04128,-1.83298 4.53618,-2.90242 4.53029,-1.94191 4.53403,-1.9477 2.88499,-4.46446 l -1.65119,-2.52003 h 5.91501 c 3.26723,0 6.45217,-0.53716 7.11501,-1.199999 0.66,-0.66 1.2,-3.05785 1.2,-5.32856 0,-7.05916 -7.07247,-15.85773 -14.95577,-18.60587 -1.67433,-0.58367 -3.04423,-1.4925 -3.04423,-2.01963 0,-0.52712 2.1375,-1.94264 4.75,-3.1456 3.89028,-1.79133 6.58464,-2.18838 14.88649,-2.19377 9.91729,-0.006 10.31194,0.083 18.25,4.13599 7.99682,4.08298 9.63725,3.97789 6.55681,-0.42005 -3.90875,-5.58052 4.36696,-0.35178 10.9409,6.91265 3.08673,3.41095 5.86928,5.94469 6.18344,5.63053 0.81108,-0.81107 -5.05541,-14.55403 -8.69714,-20.37413 -3.70767,-5.92548 -10.39145,-13.0372 -14.07084,-14.97176 -4.92955,-2.59188 -13.5337,-1.81456 -21.32787,1.92681 -8.56527,4.11151 -12.56458,7.41542 -18.13384,14.98072 -7.06831,9.60162 -9.14305,17.95438 -9.52217,38.335569 l -0.31578,16.9761 2.85513,3.75162 c 1.57033,2.06339 3.82033,4.14109 5,4.61711 2.76625,1.11624 2.89589,1.11945 4.48704,0.11098 z m 168.69823,201.58957 c 0.12655,-15.91344 0.41715,-18.96448 2.30579,-24.20828 1.18854,-3.3 2.83437,-6.49961 3.65739,-7.11024 0.82303,-0.61064 1.49641,-1.54728 1.49641,-2.08143 0,-0.53416 1.56655,-2.73455 3.48123,-4.88976 1.91468,-2.15521 5.0287,-5.71705 6.92006,-7.91518 4.01439,-4.66555 5.25834,-4.32636 3.09775,0.84467 -2.24704,5.37792 -4.49904,16.99938 -4.49904,23.21732 0,5.17407 -1.37556,7.22545 -2.63837,3.93462 -0.31659,-0.825 -1.18553,-1.5 -1.93099,-1.5 -1.05714,0 -1.22915,1.37531 -0.78171,6.25 0.6548,7.13362 -1.18254,14.81358 -5.69621,23.80983 -5.26722,10.49818 -5.57344,9.91249 -5.41231,-10.35155 z m 190.53857,-7.29161 c 0.048,-1.16495 0.2849,-1.4019 0.6041,-0.60417 0.2889,0.72187 0.2534,1.58438 -0.079,1.91667 -0.3323,0.33229 -0.5686,-0.25834 -0.5252,-1.3125 z m -161.62178,-4.85354 c -0.36595,-2.44028 -0.46089,-11.77778 -0.211,-20.75 0.38654,-13.87836 0.83269,-17.50715 2.98922,-24.31313 3.59709,-11.35237 8.88385,-21.83441 15.31508,-30.36517 3.05388,-4.05084 5.36628,-7.55139 5.13867,-7.779 -0.80545,-0.80544 -12.88773,8.98586 -13.94103,11.2976 -0.58804,1.29061 -1.44234,2.34657 -1.89844,2.34657 -0.4561,0 -2.47708,2.48178 -4.49108,5.51508 -2.01399,3.03329 -3.8728,5.30408 -4.13068,5.04619 -0.25789,-0.25788 -0.16739,-2.47937 0.2011,-4.93664 0.80891,-5.39421 5.54449,-12.94888 15.74915,-25.12463 9.22281,-11.00425 17.43785,-25.16602 19.04605,-32.83318 0.65375,-3.11675 1.52534,-5.66682 1.93688,-5.66682 1.23091,0 2.11083,6.73683 1.38516,10.605 -0.50523,2.6931 -0.35496,3.49789 0.59404,3.18156 1.99362,-0.66454 5.73436,-8.80262 6.46234,-14.059 0.36353,-2.62485 1.07722,-5.02971 1.58598,-5.34415 3.10282,-1.91764 11.97134,5.19654 15.98804,12.82533 2.06791,3.92753 2.2914,4.08391 2.63665,1.84494 0.43015,-2.78956 -2.58804,-14.79641 -3.9275,-15.62424 -1.72054,-1.06335 -0.8588,-2.55564 1.11417,-1.92944 1.1,0.34913 2,0.20681 2,-0.31625 0,-1.24662 -6.79226,-7.35725 -10.82754,-9.74095 -3.65408,-2.15851 -4.06943,-3.4428 -1.11344,-3.4428 3.61625,0 1.12489,-1.75715 -4.30594,-3.03697 -8.40423,-1.98053 -14.36304,-4.6384 -22.05967,-9.8395 -14.04347,-9.49005 -20.53835,-19.12359 -13.44341,-19.93995 1.5125,-0.17403 2.75,-0.75854 2.75,-1.29889 0,-1.28238 -7.85254,-4.83445 -10.75,-4.86273 -2.32784,-0.0227 -3.01428,-1.43158 -1.23369,-2.53204 2.34899,-1.45175 -0.63038,-2.61082 -6.36569,-2.47645 -3.38284,0.0793 -6.46669,0.10864 -6.853,0.0653 -0.38631,-0.0433 1.52619,-2.30735 4.25,-5.03116 2.72381,-2.72381 4.95238,-5.56433 4.95238,-6.31227 0,-2.50486 -7.12735,-1.44948 -13,1.92497 -5.65241,3.2479 -13.74903,5.92399 -14.78596,4.88705 -0.32125,-0.32125 1.05488,-2.26332 3.05807,-4.31573 3.51001,-3.59624 6.72789,-10.46322 6.72789,-14.35736 0,-2.00521 -1.48096,-2.52312 -2.5,-0.87427 -0.33992,0.55 -1.54457,1 -2.677,1 -1.13243,0 -3.66302,1.40837 -5.62352,3.12971 -1.9605,1.72135 -7.19491,4.8018 -11.63201,6.84547 -4.43711,2.04366 -9.54898,4.96628 -11.3597,6.49471 -1.81073,1.52844 -3.52487,2.54635 -3.80919,2.26203 -0.72027,-0.72027 2.46459,-11.45866 4.72821,-15.94208 2.66026,-5.26904 2.38433,-6.104359 -1.37679,-4.16791 -6.35129,3.27 -11.9883,8.86659 -16.43899,16.3211 l -4.51186,7.55697 0.61593,-4.5 c 0.33876,-2.475 2.26163,-7.86993 4.27304,-11.98873 3.72948,-7.63693 10.7406,-15.534169 21.9298,-24.701439 9.37915,-7.68431 13.77627,-16.61986 13.53725,-27.50955 -0.14901,-6.78837 -2.4262,-13.19438 -7.52174,-21.1595 -2.06158,-3.22257 -3.53929,-6.06825 -3.28381,-6.32374 0.25549,-0.25548 1.83399,0.24367 3.50779,1.10922 5.35097,2.7671 5.43855,1.99594 0.60658,-5.34103 -1.94481,-2.95304 -3.35308,-5.86778 -3.1295,-6.47719 0.22358,-0.60942 5.97728,4.60052 12.78601,11.57766 14.67691,15.03992 19.8795,18.40788 19.8795,12.86924 0,-3.42091 -8.36348,-14.53136 -18.32349,-24.34182 -5.46484,-5.38278 -9.70425,-10.0187004 -9.42091,-10.3020404 0.89756,-0.89757 17.59066,6.3126704 24.04382,10.3852104 8.20727,5.17956 14.76097,8.47665 15.45993,7.7777 1.08653,-1.08654 -1.61756,-5.30684 -7.40688,-11.55999 -4.69186,-5.0677704 -5.34651,-6.1499304 -3.34336,-5.5267204 8.67882,2.7001304 31.6356,17.0138504 44.81236,27.9408404 12.30533,10.20435 25.73775,26.71196 30.19271,37.10496 1.61379,3.76483 2.31511,4.56009 3.02774,3.43334 1.5289,-2.41737 1.14611,-26.85028 -0.51712,-33.00632 -0.81135,-3.00306 -1.77802,-6.5851 -2.14815,-7.9601 l -0.67296,-2.5 2.58443,2.36444 c 5.00017,4.57457 11.20616,18.83105 14.85955,34.13556 1.82661,7.65193 1.50816,23.35938 -0.58794,28.999999 -2.44357,6.57563 -4.5641,17.3677 -3.60414,18.34264 3.07191,3.11985 10.04378,-8.46573 10.8056,-17.95631 0.8101,-10.092179 2.22211,-8.325469 3.6134,4.52109 0.76037,7.02094 -2.05391,21.98657 -4.96377,26.39604 -5.80577,8.79779 -20.70754,14.09768 -38.05242,13.53353 -5.69836,-0.18535 -10.36014,5.1e-4 -10.35952,0.41301 6.1e-4,0.4125 0.22049,0.75 0.48862,0.75 0.26812,0 4.88062,1.1796 10.25,2.62133 8.50378,2.28334 11.82545,2.63291 25.7625,2.7112 15.69439,0.0882 16.16124,0.0285 24.4414,-3.12133 9.63969,-3.66704 9.0586,-3.52562 9.0586,-2.20464 0,2.24153 -15.91406,11.26269 -27.5,15.58885 -4.52008,1.68778 5.22573,1.88475 13.5,0.27285 13.43992,-2.61823 24.53826,-3.98268 26.44461,-3.25114 1.29103,0.49541 -0.71358,1.88841 -7.59533,5.27796 -5.14211,2.53271 -9.18106,5.05492 -8.97546,5.60492 0.2056,0.55 2.05227,1.49559 4.1037,2.1013 6.57397,1.94106 17.28706,10.73727 22.37466,18.37121 3.0071,4.51206 1.7228,4.68124 -6.10218,0.8038 -6.73682,-3.33823 -8.68447,-3.84784 -14.89793,-3.89811 -5.91319,-0.0478 -10.05328,0.86423 -12.19891,2.68743 -0.19076,0.16209 2.33077,2.91476 5.6034,6.11703 3.27264,3.20227 7.02871,7.84619 8.34684,10.31982 2.15868,4.05104 2.39072,5.68878 2.33738,16.49752 -0.0554,11.22052 -0.28431,12.58461 -3.52444,21 -6.17291,16.03253 -11.82872,24.2079 -28.41634,41.07525 -9.14126,9.29542 -16.6903,16.09109 -19.32765,17.39879 l -4.32765,2.14583 3.96904,-5.30993 c 6.42524,-8.59597 12.07891,-21.01532 9.43626,-20.72855 -0.4125,0.0448 -2.775,2.41446 -5.25,5.266 -2.475,2.85153 -7.875,7.99053 -12,11.41998 -8.85445,7.36144 -40.35205,27.56218 -40.83271,26.18774 -0.18299,-0.52326 0.57979,-2.42784 1.69506,-4.2324 3.48011,-5.63092 9.27708,-17.86991 10.7278,-22.64929 1.90393,-6.27247 1.83357,-14.47688 -0.13818,-16.11328 -1.27016,-1.05414 -2.14403,-1.00054 -4.86835,0.29859 -8.15642,3.88953 -15.59494,18.85154 -17.52057,35.24127 -0.58158,4.95 -1.05868,9.3375 -1.06023,9.75 -0.002,0.4125 -0.42525,0.75 -0.94155,0.75 -0.5163,0 -1.23813,-1.99659 -1.60407,-4.43687 z m 47.4046,-192.11456 c 3.35452,-4.26459 5.43905,-10.91824 4.74496,-15.14552 -0.34343,-2.09168 -1.0282,-8.33197 -1.5217,-13.867319 -1.12539,-12.62299 -2.8118,-18.3488 -9.13109,-31.00241 -6.19708,-12.40889 -9.23872,-16.17581 -16.09842,-19.93711 -10.9521,-6.00524 -22.58929,-2.82192 -34.0338,9.30987 -5.90047,6.2548 -15.79243,22.55657 -14.48236,23.86664 0.28603,0.28604 2.54526,-0.87331 5.02051,-2.57633 5.06733,-3.48641 7.92139,-4.16968 5.29509,-1.26765 -3.93566,4.34885 -0.15989,5.56227 6.8096,2.1884 5.86358,-2.83851 11.26685,-8.80703 13.95042,-15.40981 l 2.32196,-5.71305 3.94692,4.48394 c 6.67324,7.58121 10.73498,16.7848 11.16492,25.29889 0.20338,4.02759 0.73201,7.32289 1.17472,7.32289 0.4427,0 2.30602,-2.3625 4.1407,-5.25 l 3.33577,-5.25 0.32805,4 c 0.18042,2.2 -0.18833,6.63125 -0.81945,9.84722 -0.63113,3.215969 -0.87133,6.123379 -0.5338,6.460919 0.33754,0.33753 1.64604,-0.68096 2.90777,-2.26333 1.27917,-1.60423 2.5702,-2.43025 2.91823,-1.86713 1.52169,2.46216 -0.77257,8.43432 -5.47068,14.24063 -5.71187,7.05921 -4.93237,8.54755 2.70687,5.16835 l 4.68273,-2.07139 -0.65517,3.49236 c -0.44094,2.35038 -0.27791,3.49237 0.49854,3.49237 0.73685,0 0.92284,0.91994 0.51472,2.54599 -1.31377,5.2345 2.13191,5.18109 6.28399,-0.0974 z m 110.25478,183.6114 c -7.3862,-23.29989 -22.3335,-49.08174 -33.69878,-58.12537 -3.52979,-2.80875 -6.41199,-5.40556 -6.4049,-5.7707 0.007,-0.36515 0.87958,-3.42808 1.93885,-6.80653 1.36407,-4.35054 1.79193,-7.93963 1.46657,-12.30209 -0.25267,-3.38771 -0.053,-6.88573 0.4438,-7.77338 0.75251,-1.34467 1.33976,-0.96061 3.51996,2.30209 1.4392,2.1538 4.7545,6.48171 7.3674,9.61757 14.4635,17.35893 17.0652,20.62783 19.1395,24.04844 1.2508,2.0625 1.814,3.75 1.2516,3.75 -0.5624,0 -1.319,-0.47972 -1.6814,-1.06605 -0.9236,-1.49448 -8.5549,-6.93395 -9.7279,-6.93395 -0.5328,0 0.2458,1.5922 1.7301,3.53823 3.6684,4.80959 8.0771,14.77907 10.6897,24.17327 3.266,11.7436 8.6783,39.67814 7.864,40.58876 -0.3936,0.44015 -2.1479,-3.71798 -3.8985,-9.24029 z m -195.3172,-10.17848 c 0.38534,-0.34017 2.72562,-1.37859 5.20062,-2.30758 6.3592,-2.38692 7.43738,-3.39092 11.98727,-11.16262 5.07324,-8.66562 8.88721,-19.93681 7.28757,-21.53645 -0.82716,-0.82716 -1.99114,-0.10683 -4.4476,2.7524 -6.47895,7.54122 -13.27801,13.25532 -14.41697,12.11637 -0.29002,-0.29002 1.96703,-2.68076 5.01565,-5.31275 6.53513,-5.64202 10.13537,-10.76187 11.71146,-16.65468 1.06468,-3.98072 0.91889,-4.72562 -2.10911,-10.77625 -4.94523,-9.88168 -7.26514,-11.97971 -8.59912,-7.77669 -0.62148,1.9581 -0.97532,1.61217 -2.96699,-2.90075 -2.87679,-6.51849 -4.85249,-7.17186 -11.50027,-3.80318 -2.83841,1.43834 -5.36417,2.41175 -5.61278,2.16314 -0.78455,-0.78455 6.76914,-6.4719 9.21725,-6.93989 3.98898,-0.76254 9.08717,2.48085 14.6532,9.32214 7.31472,8.99063 10.68568,16.84727 11.42094,26.61864 l 0.58817,7.81666 -6.65315,12.5 c -3.65924,6.875 -6.91317,13.2875 -7.23097,14.25 -0.3178,0.9625 -0.86283,1.78583 -1.21118,1.82963 -3.42779,0.43094 -12.87468,0.27919 -12.33399,-0.19814 z m -8.79938,-11.13726 c 1.73837,-1.65809 13,-7.9851 13,-7.30367 0,0.98694 -6.81729,5.58354 -10.55383,7.11598 -3.10849,1.27486 -3.62776,1.31471 -2.44617,0.18769 z m 17.6103,-38.24423 c 0.82247,-3.67693 1.39483,-4.47511 1.37439,-1.91667 -0.008,1.05417 -0.47209,2.59167 -1.03038,3.41667 -0.74131,1.09546 -0.83408,0.69092 -0.34401,-1.5 z m 18.09639,-2.73127 c -1.33302,-1.7978 -3.6586,-5.58482 -5.16797,-8.4156 -4.40722,-8.26559 -8.26334,-12.18931 -15.62051,-15.89432 -9.21935,-4.64279 -13.6966,-4.63619 -20.6261,0.0304 -2.84966,1.91907 -6.51817,5.43245 -8.15226,7.80752 -4.86138,7.06577 -6.77213,7.80292 -3.10254,1.19693 4.88505,-8.79407 8.61316,-14.07357 11.59342,-16.41784 3.94042,-3.09954 10.80598,-2.80723 16.42349,0.69925 6.36579,3.97356 18.2207,9.22492 20.8252,9.22492 3.28599,0 7.42176,-2.44006 10.95344,-6.46241 5.3924,-6.14162 6.25998,-8.68894 5.55237,-16.30254 -0.53698,-5.77772 -0.31029,-7.46163 1.47588,-10.9628 1.16067,-2.2751 2.55308,-4.4102 3.09424,-4.74466 1.22025,-0.75415 4.81954,-12.79319 5.2366,-17.51559 l 0.30805,-3.488 2.20662,2.38 c 4.8136,5.19181 6.76016,11.02905 6.64437,19.92472 -0.13061,10.03307 -1.52213,12.28329 -3.9082,6.31991 -2.18167,-5.45254 -4.9389,-5.62454 -6.39021,-0.39863 -1.40423,5.05641 -1.32855,6.5198 0.58442,11.3008 2.17754,5.44221 1.06934,8.98954 -6.23226,19.9492 -6.10929,9.17003 -11.40268,19.47044 -11.40395,22.19098 -10e-4,3.07437 -1.83516,2.89406 -4.2941,-0.42225 z m -77.70669,-1.32775 c 0,-1.95746 0.37497,-3.32727 0.83327,-3.04403 0.78822,0.48715 0.37441,6.60305 -0.44677,6.60305 -0.21257,0 -0.3865,-1.60156 -0.3865,-3.55902 z m -0.0349,-18.19098 c -0.042,-6.92916 -2.28053,-20.06877 -3.9808,-23.36676 -0.67578,-1.31078 -2.4112,-3.67996 -3.8565,-5.26484 -1.92411,-2.10994 -2.26712,-3.01122 -1.28091,-3.36564 2.32838,-0.83674 8.19773,-6.43751 9.59005,-9.1512 0.73413,-1.43086 1.88492,-5.30156 2.55729,-8.60156 1.14275,-5.60855 2.88197,-10.25397 2.99516,-8 0.2546,5.06992 2.329,15.7271 3.64067,18.70385 0.93164,2.1143 3.34203,4.83545 5.61652,6.34063 l 3.98446,2.6368 -2.86556,1.74265 c -7.57159,4.60455 -11.28836,11.97973 -13.51921,26.82607 -0.59917,3.9875 -1.4847,7.25 -1.96784,7.25 -0.48314,0 -0.89414,-2.5875 -0.91333,-5.75 z m 17.10347,-9.25 c -0.0628,-1.91991 4.28627,-11.28523 7.02984,-15.13822 1.15949,-1.62835 3.84868,-3.65705 5.97599,-4.50823 3.43192,-1.37318 4.41667,-2.63555 8.73738,-11.20058 3.38389,-6.70794 5.87854,-10.33942 8.17676,-11.90297 3.80043,-2.58555 6.01145,-2.8831 6.01145,-0.80902 0,2.27708 2.04341,2.94418 3.76006,1.22753 1.22547,-1.22547 1.31022,-1.8789 0.38785,-2.99029 -0.9562,-1.15214 -0.65509,-1.62647 1.5859,-2.49822 7.43183,-2.89101 15.61942,-4.03551 16.67308,-2.33065 0.93219,1.50831 -6.4247,15.53286 -10.22236,19.48705 -4.03331,4.19955 -10.72359,7.99274 -16.18052,9.17387 -4.15592,0.89954 -10.00401,3.56984 -10.00401,4.56795 0,1.17769 2.56799,1.79923 10.34586,2.50404 6.92673,0.62769 7.76537,0.48214 12.7056,-2.20511 5.6337,-3.06446 14.24702,-12.45392 16.608,-18.10455 1.70305,-4.07597 3.34054,-4.2281 3.34054,-0.31036 0,2.43073 -2.02492,5.01933 -11.28554,14.42712 -6.20705,6.30569 -12.39455,11.74197 -13.75,12.08062 -1.47735,0.36911 -5.58101,-0.40278 -10.24536,-1.92712 -4.27949,-1.39857 -9.25389,-2.54286 -11.05422,-2.54286 -5.35046,0 -12.67027,5.33154 -17.35607,12.64167 -0.91226,1.42318 -1.20268,1.50709 -1.24023,0.35833 z m 37.50228,-27.38077 c 10.62863,-4.94919 17.67916,-19.61923 9.42914,-19.61923 -2.33927,0 -3.60526,1.75503 -4.38206,6.07484 -0.68436,3.80573 -4.65181,8.25767 -8.35599,9.37641 -1.41423,0.42713 -3.3623,0.0118 -5.29229,-1.12824 -2.66876,-1.57648 -3.17318,-1.61606 -3.99664,-0.3136 -0.51832,0.81982 -0.94929,2.95309 -0.95771,4.74059 -0.0149,3.16078 0.10136,3.24973 4.23469,3.24023 2.34923,-0.005 6.5179,-1.06581 9.32086,-2.371 z m -71.36257,24.62958 c -2.03383,-5.66695 -6.86987,-10.96961 -10.87901,-11.92871 -3.12123,-0.74668 -3.7734,-1.31156 -3.5271,-3.05498 0.43566,-3.08389 -2.54884,-4.26512 -10.77627,-4.26512 -5.24072,0 -8.1839,-0.55012 -11.21425,-2.09609 -5.72203,-2.91916 -13.0777,-10.90926 -16.99042,-18.45583 -4.3712,-8.43088 -3.60264,-9.26765 6.45665,-7.02967 7.4126,1.64915 13.30633,4.48011 9.47212,4.54979 -2.2154,0.0403 -2.29587,2.8851 -0.10539,3.72566 1.01553,0.3897 2.18012,-0.10044 3.04462,-1.28138 1.37367,-1.8765 1.46972,-1.87274 5.10539,0.2001 2.03796,1.16191 7.43258,6.33691 11.98805,11.5 4.55547,5.16308 9.5986,9.94331 11.20695,10.62272 3.54205,1.49627 4.35353,2.91969 6.89696,12.098 1.89621,6.8427 1.36268,11.10236 -0.6783,5.41551 z m -20.7046,-24.25287 c 1.50611,-1.66424 1.61864,-2.43205 0.66364,-4.52807 -1.60853,-3.53033 -3.66801,-4.00579 -6.77278,-1.56358 -1.46534,1.15264 -3.48791,2.09571 -4.4946,2.09571 -2.99977,0 -8.77132,-5.83867 -10.07594,-10.19311 -1.30951,-4.37076 -4.59405,-7.2161 -7.1831,-6.22259 -2.60741,1.00056 -1.94547,3.7317 2.52813,10.43097 5.44994,8.16135 11.31092,11.98473 18.37176,11.98473 3.88272,0 5.59532,-0.49292 6.96289,-2.00406 z m -18.13401,15.56707 c -2.807,-1.89034 -8.94563,-7.07376 -13.6414,-11.51869 -8.32243,-7.87788 -8.548,-8.21365 -8.94377,-13.31301 -0.22331,-2.87722 -0.29505,-5.38993 -0.15944,-5.58379 0.13562,-0.19387 1.82916,2.7901 3.76343,6.63104 4.00374,7.95037 10.99073,14.75605 19.39151,18.88832 5.53813,2.72415 4.77461,2.71053 16.72,0.29822 0.55,-0.11107 1.9,-0.14232 3,-0.0695 2.06968,0.13711 -11.52205,8.10436 -13.82561,8.10436 -0.6606,0 -3.49772,-1.54665 -6.30472,-3.43699 z m -142.36967,-21.0448 c 0,-2.74957 8.61742,-16.09347 15.66308,-24.25397 15.80641,-18.30746 17.66381,-27.26593 5.65266,-27.26345 -3.29114,6.8e-4 -6.00417,1.0499 -17.56574,6.7933 -2.18471,1.08529 -0.25245,-2.97624 3.03416,-6.3777 8.6563,-8.95877 18.17983,-14.84232 28.42331,-17.55967 4.06957,-1.07956 5.4924,-1.00457 10.5,0.55341 7.26341,2.25982 11.53351,5.43857 14.80522,11.0213 3.75573,6.40868 4.30113,13.25599 1.51439,19.01263 -2.9223,6.03666 -6.47668,8.54799 -18.30637,12.93427 -13.95454,5.17415 -23.01439,9.97714 -32.06067,16.99666 -10.75342,8.34418 -11.66004,8.97735 -11.66004,8.14322 z m 217.61913,-9.33164 c -0.97953,-7.38403 1.85064,-21.43576 6.02003,-29.88936 3.33579,-6.76344 11.71172,-16.29721 14.31799,-16.29721 1.35224,0 1.42496,-0.26969 -1.46135,5.41948 -3.99521,7.87494 -3.77619,8.21205 5.75419,8.85635 7.96556,0.53851 15.43696,2.37054 14.30085,3.50666 -0.30319,0.30318 -3.03836,0.68549 -6.07815,0.84957 -7.56683,0.40844 -13.09582,3.1243 -18.76068,9.2153 -4.69119,5.04409 -11.71202,17.8571 -11.71202,21.37443 0,3.79263 -1.77535,1.52935 -2.38086,-3.03522 z m -34.25829,0.0634 c -1.73314,-5.26217 -5.86231,-12.53812 -9.3897,-16.54545 -4.40997,-5.00998 -9.65162,-7.49515 -18.11876,-8.59044 l -5.35238,-0.69237 5.78751,-2.21087 c 3.18313,-1.21598 7.34563,-2.21087 9.25,-2.21087 3.17532,0 3.46249,-0.24714 3.46249,-2.97976 0,-1.63887 -0.71766,-4.77338 -1.59481,-6.96558 -2.30968,-5.77247 -1.42383,-6.64563 3.09718,-3.05278 5.1011,4.05385 10.80237,12.15605 13.01656,18.49812 2.14674,6.14884 3.35868,26.5 1.57813,26.5 -0.63791,0 -1.41921,-0.7875 -1.73622,-1.75 z m 96.43163,-3.28945 c 0.28624,-1.95025 -0.14965,-3.69773 -1.21636,-4.87644 -1.5282,-1.68864 -1.53122,-1.88736 -0.0375,-2.46055 0.89372,-0.34296 4.40065,-0.61261 7.79317,-0.59923 l 6.16821,0.0243 -4.7376,2.63701 c -2.74243,1.52648 -5.26676,3.83247 -5.99411,5.47568 -1.64064,3.70647 -2.53592,3.61549 -1.97581,-0.20079 z m -162.56024,-0.96031 c -0.68688,-1.09986 -3.11265,-3.34986 -5.39059,-5 l -4.14172,-3.00021 h 3.58494 c 1.97172,0 4.78815,0.45746 6.25873,1.01657 2.20704,0.83912 2.46076,1.27326 1.45343,2.48702 -0.69566,0.83821 -0.94917,2.55091 -0.58964,3.98342 0.76179,3.03521 0.47741,3.15941 -1.17515,0.51323 z m 86.23492,-45.19462 c -1.90454,-11.27283 -7.38792,-21.46649 -17.26383,-32.093599 -6.35693,-6.84047 -12.20332,-14.88936 -12.20332,-16.80067 0,-0.67559 3.00078,1.65316 6.66839,5.17499 4.16026,3.99489 6.83171,5.91335 7.10262,5.10064 0.23882,-0.71647 -0.32974,-2.14685 -1.26348,-3.17862 -2.61194,-2.88616 -4.41462,-8.93953 -4.46944,-15.00833 -0.0761,-8.42222 -1.69316,-16.5668 -4.51157,-22.72304 -1.40542,-3.06983 -2.3459,-5.79091 -2.08997,-6.04684 0.25593,-0.25593 3.11559,2.06259 6.35479,5.15227 3.23921,3.08969 6.18629,5.61761 6.54906,5.61761 3.39314,0 -5.5577,-11.39523 -20.64684,-26.28532 -12.18318,-12.02244 -14.78738,-15.4408 -9.68149,-12.70821 4.20929,2.25273 13.06392,4.9016 14.51881,4.34331 6.20847,-2.38241 -9.69504,-18.0643304 -27.34662,-26.9656004 -3.47366,-1.75168 -5.94866,-3.3895396 -5.5,-3.6396896 1.57753,-0.87955 27.93509,4.9597896 38.42684,8.5132096 14.91053,5.05001 25.68122,11.97474 40.61792,26.1142404 2.32597,2.20183 4.49487,3.7375 4.81977,3.4126 1.0722,-1.07221 -3.28205,-8.16953 -9.57896,-15.61347 l -6.19963,-7.3289404 4.22409,2.15497 c 5.68608,2.90082 18.8044,16.0239404 23.84835,23.8570804 6.28679,9.76325 8.47024,16.30895 8.57097,25.69471 0.0789,7.34826 -0.23428,8.69796 -3.59747,15.50563 -3.06702,6.20817 -5.66503,9.38138 -15.51588,18.95111 -15.01909,14.590479 -18.46095,20.755449 -19.11842,34.244369 -0.45917,9.42054 -1.5761,11.2949 -2.71469,4.55562 z"
           id="path2204" />
      </g>
    </g>
  </g>
</svg>
