<?xml version="1.0" encoding="UTF-8" standalone="no"?>
<svg
   xmlns:dc="http://purl.org/dc/elements/1.1/"
   xmlns:cc="http://creativecommons.org/ns#"
   xmlns:rdf="http://www.w3.org/1999/02/22-rdf-syntax-ns#"
   xmlns:svg="http://www.w3.org/2000/svg"
   xmlns="http://www.w3.org/2000/svg"
   xmlns:sodipodi="http://sodipodi.sourceforge.net/DTD/sodipodi-0.dtd"
   xmlns:inkscape="http://www.inkscape.org/namespaces/inkscape"
   version="1.1"
   id="svg2"
   width="143"
   height="217"
   viewBox="0 0 143 217"
   sodipodi:docname="trofeu_ligaA.svg"
   inkscape:version="1.0.1 (3bc2e813f5, 2020-09-07)">
  <metadata
     id="metadata8">
    <rdf:RDF>
      <cc:Work
         rdf:about="">
        <dc:format>image/svg+xml</dc:format>
        <dc:type
           rdf:resource="http://purl.org/dc/dcmitype/StillImage" />
        <dc:title />
      </cc:Work>
    </rdf:RDF>
  </metadata>
  <defs
     id="defs6" />
  <sodipodi:namedview
     pagecolor="#ffffff"
     bordercolor="#666666"
     borderopacity="1"
     objecttolerance="10"
     gridtolerance="10"
     guidetolerance="10"
     inkscape:pageopacity="0"
     inkscape:pageshadow="2"
     inkscape:window-width="1366"
     inkscape:window-height="705"
     id="namedview4"
     showgrid="false"
     inkscape:zoom="2.1851502"
     inkscape:cx="78.511961"
     inkscape:cy="110.96209"
     inkscape:window-x="-8"
     inkscape:window-y="-8"
     inkscape:window-maximized="1"
     inkscape:current-layer="g10"
     inkscape:document-rotation="0" />
  <g
     inkscape:groupmode="layer"
     inkscape:label="Image"
     id="g10">
    <path
       style="opacity:0.998;fill:#0000ff;stroke:#000000;stroke-width:1.12693;stroke-opacity:1"
       d="m 52.812649,215.29608 c -4.338658,-0.5289 -9.409816,-1.3863 -11.269242,-1.90536 -3.27103,-0.91313 -3.388704,-1.17895 -3.625122,-8.18933 -0.192403,-5.70523 0.230839,-7.90007 1.990904,-10.32438 1.22939,-1.69335 2.55633,-5.42131 2.948755,-8.28436 0.426703,-3.11315 1.859323,-6.5673 3.564103,-8.59331 1.567832,-1.86326 3.647102,-4.81104 4.620602,-6.55061 0.973501,-1.73958 2.877617,-5.14921 4.231372,-7.57696 1.353754,-2.42776 4.327723,-5.83764 6.608818,-7.57753 3.890866,-2.9677 4.113048,-3.4686 3.591403,-8.09663 -0.305825,-2.71326 -0.110316,-5.20869 0.434457,-5.54538 3.076203,-1.90118 -0.359491,-14.00223 -3.975475,-14.00223 -0.801571,0 -3.514226,-1.48995 -6.02812,-3.31102 -2.513895,-1.82106 -7.534363,-4.83036 -11.156594,-6.68735 -3.622231,-1.85698 -9.121454,-5.19529 -12.220496,-7.41847 -3.099042,-2.22316 -8.311527,-5.83125 -11.583299,-8.01797 -3.271774,-2.1867 -5.651883,-4.456062 -5.289132,-5.043003 0.36275,-0.586944 -1.150749,-4.745762 -3.363331,-9.241818 C 6.1889748,76.528259 5.2366178,70.269181 7.5955416,58.062656 c 1.070026,-5.536983 1.592179,-10.987986 1.160338,-12.113342 -1.151541,-3.000872 1.8140164,-4.4065 4.3859944,-2.078891 1.461767,1.322879 4.165309,1.890091 9.128118,1.915105 5.802528,0.02924 7.734298,0.551173 10.90847,2.947251 l 3.857248,2.91171 2.555942,-2.91171 c 1.405766,-1.601441 3.8043,-4.494061 5.330071,-6.428045 1.525773,-1.933983 4.225265,-4.117411 5.998872,-4.852063 1.836564,-0.76073 4.035942,-3.03684 5.109166,-5.287416 1.340447,-2.810947 3.363273,-4.605849 7.007369,-6.217806 5.857532,-2.591065 6.958026,-4.427968 5.098231,-8.509772 -1.066662,-2.341072 -0.97356,-3.403411 0.494646,-5.644178 1.07276,-1.637239 1.663344,-4.446573 1.45155,-6.9048534 -0.264072,-3.065075 0.07641,-4.14454556 1.307229,-4.14454556 1.249727,0 1.581718,1.14380436 1.332768,4.59176766 -0.224679,3.1117837 0.236471,5.0631723 1.430752,6.0543383 2.126264,1.764642 2.236017,3.839394 0.361855,6.840405 -1.973711,3.160415 -0.07167,5.688195 5.737041,7.624432 3.666101,1.222034 5.252939,2.586995 7.008834,6.028835 1.248384,2.447031 3.442889,4.895162 4.87668,5.440289 1.43379,0.545126 5.024473,3.820946 7.979294,7.279599 2.95483,3.458654 5.91201,6.288462 6.57153,6.288462 0.65952,0 2.41478,-1.141012 3.90056,-2.53558 2.26913,-2.129821 3.96149,-2.53558 10.57559,-2.53558 6.32734,0 8.09103,-0.387407 8.97817,-1.972117 0.60721,-1.084665 1.78523,-1.972117 2.61784,-1.972117 1.99941,0 3.01389,2.798 1.54651,4.265378 -0.7944,0.794383 -0.58932,3.431786 0.65152,8.37952 3.2765,13.064696 1.58639,25.549719 -4.96087,36.646504 -1.23406,2.091576 -2.24374,5.028646 -2.24374,6.526821 0,1.868235 -1.03042,3.256793 -3.28001,4.420113 -1.804,0.93288 -7.18006,4.49431 -11.9468,7.91429 -4.76673,3.41998 -11.84448,7.7347 -15.728331,9.5883 -3.883843,1.8536 -7.632956,4.05868 -8.331357,4.9002 -0.6984,0.84151 -3.304342,2.44749 -5.790983,3.56879 -3.614128,1.62975 -4.787663,2.92826 -5.849536,6.47247 -0.977819,3.26367 -0.998826,4.9614 -0.07961,6.43331 0.700241,1.12126 0.973051,4.05525 0.621074,6.67944 -0.596409,4.44655 -0.367396,4.91372 4.594283,9.3722 2.872093,2.5808 5.221985,5.14203 5.221985,5.69161 0,0.54959 1.26779,2.6614 2.81731,4.69293 1.549522,2.03153 2.817311,4.18838 2.817311,4.793 0,0.60462 1.500465,2.77994 3.334365,4.83404 2.178668,2.44028 3.604348,5.53516 4.113329,8.92926 0.42843,2.85698 1.68217,6.46562 2.78608,8.01921 1.29428,1.82147 2.13476,5.4148 2.36649,10.11748 0.34075,6.91531 0.20615,7.3671 -2.60054,8.72847 -6.472832,3.1396 -33.478709,4.46052 -50.005534,2.44591 z M 47.201437,113.15478 C 45.39652,108.59827 43.374733,95.744052 42.725892,84.699954 41.361644,61.478686 40.464678,57.984909 36.734043,61.361087 32.517649,65.17687 27.704756,62.436418 29.069925,56.997151 30.765298,50.242248 22.193339,48.440647 16.317138,54.316847 7.1152026,63.518783 11.600311,83.566715 26.498224,99.825163 36.41621,110.64889 49.561301,119.11227 47.201437,113.15478 Z m 56.403013,-1.46383 c 24.14313,-16.610909 35.48972,-45.123343 22.94796,-57.6651 -2.65581,-2.655801 -4.07071,-3.20573 -7.51535,-2.920969 -4.20711,0.347794 -4.24842,0.399227 -4.80704,5.98543 -0.51484,5.148468 -0.8314,5.665439 -3.66891,5.991823 -2.02516,0.232942 -3.34118,-0.257088 -3.78307,-1.408656 -0.37269,-0.971222 -1.14304,-1.765857 -1.71188,-1.765857 -2.08073,0 -3.28617,6.229123 -4.43748,22.930522 -0.647391,9.391408 -1.908861,20.276227 -2.803261,24.188487 -0.8944,3.91227 -1.626187,7.3353 -1.626187,7.60673 0,1.31472 2.882237,0.16947 7.405218,-2.94241 z"
       id="path837" />
  </g>
</svg>
