<?xml version="1.0" encoding="UTF-8" standalone="no"?>
<svg
   xmlns:dc="http://purl.org/dc/elements/1.1/"
   xmlns:cc="http://creativecommons.org/ns#"
   xmlns:rdf="http://www.w3.org/1999/02/22-rdf-syntax-ns#"
   xmlns:svg="http://www.w3.org/2000/svg"
   xmlns="http://www.w3.org/2000/svg"
   xmlns:sodipodi="http://sodipodi.sourceforge.net/DTD/sodipodi-0.dtd"
   xmlns:inkscape="http://www.inkscape.org/namespaces/inkscape"
   version="1.1"
   id="svg2"
   width="109"
   height="209"
   viewBox="0 0 109 209"
   sodipodi:docname="trofeu_ligaB.svg"
   inkscape:version="1.0.1 (3bc2e813f5, 2020-09-07)">
  <metadata
     id="metadata8">
    <rdf:RDF>
      <cc:Work
         rdf:about="">
        <dc:format>image/svg+xml</dc:format>
        <dc:type
           rdf:resource="http://purl.org/dc/dcmitype/StillImage" />
        <dc:title></dc:title>
      </cc:Work>
    </rdf:RDF>
  </metadata>
  <defs
     id="defs6" />
  <sodipodi:namedview
     pagecolor="#ffffff"
     bordercolor="#666666"
     borderopacity="1"
     objecttolerance="10"
     gridtolerance="10"
     guidetolerance="10"
     inkscape:pageopacity="0"
     inkscape:pageshadow="2"
     inkscape:window-width="1366"
     inkscape:window-height="705"
     id="namedview4"
     showgrid="false"
     inkscape:zoom="2.4680592"
     inkscape:cx="54.5"
     inkscape:cy="104.5"
     inkscape:window-x="-8"
     inkscape:window-y="-8"
     inkscape:window-maximized="1"
     inkscape:current-layer="g10" />
  <g
     inkscape:groupmode="layer"
     inkscape:label="Image"
     id="g10">
    <path
       style="opacity:0.999;fill:#008000;stroke-width:1.07156;stroke:#000000;stroke-opacity:1"
       d="m 41.921008,207.04377 c -3.50456,-0.55029 -8.567661,-2.09098 -11.251338,-3.42376 -4.615607,-2.29225 -4.896614,-2.68729 -5.197593,-7.30698 -0.33363,-5.12084 3.019677,-14.94005 5.102103,-14.94005 0.691416,0 1.109636,-4.05229 1.109636,-10.7517 v -10.7517 l 3.750445,-2.21282 c 2.062746,-1.21705 3.750446,-2.67625 3.750446,-3.24267 0,-0.56642 2.428868,-3.59803 5.397485,-6.7369 2.968617,-3.13888 5.861818,-7.32608 6.429336,-9.30489 1.507831,-5.25751 1.262143,-10.12359 -0.588697,-11.65963 -1.203558,-0.99888 -1.317931,-1.70958 -0.444486,-2.76202 0.842789,-1.01549 0.859533,-3.4502 0.05909,-8.59165 C 48.684615,106.66962 46.432866,103.97141 36.21439,98.795261 26.025622,93.634157 15.126175,82.489711 10.080828,72.074268 3.3092762,58.095304 2.3778468,49.359116 7.028623,43.446612 c 1.1838846,-1.505065 2.1525176,-3.45503 2.1525176,-4.333253 0,-1.216885 0.796662,-1.437438 3.3486124,-0.927047 1.841737,0.368348 4.90917,0.669723 6.816519,0.669723 3.028612,0 3.408945,0.308435 3.002451,2.434873 -0.276974,1.448895 0.465567,3.618476 1.833703,5.35778 2.736191,3.478504 3.842406,3.666145 4.597204,0.779794 0.445299,-1.702826 1.461619,-2.143112 4.946979,-2.143112 3.648731,0 4.386542,-0.354781 4.386542,-2.109298 0,-3.684522 8.686659,-19.418287 11.261345,-20.397182 3.180087,-1.209066 4.125878,-4.070336 2.277782,-6.890889 -1.304906,-1.991537 -1.297999,-2.592796 0.05058,-4.403125 1.04464,-1.402318 1.355438,-3.4273248 0.938524,-6.1149639 -0.57333,-3.6960031 -0.417986,-4.0183347 1.936595,-4.0183347 2.384236,0 2.524127,0.317622 2.038287,4.6279729 -0.375478,3.3312337 -0.04672,5.1028907 1.173309,6.3229217 1.487411,1.48741 1.501797,1.855251 0.117489,3.004125 -2.656774,2.204927 -1.820142,5.262078 2.06781,7.556026 2.004899,1.182919 3.941949,3.332819 4.304554,4.777553 0.362605,1.444733 2.097634,4.894835 3.85562,7.666892 1.757986,2.772056 3.196339,6.123471 3.196339,7.44759 0,2.066281 0.64544,2.454186 4.554112,2.736988 3.646767,0.263853 4.491381,0.703114 4.23925,2.204724 -0.388924,2.316316 0.729193,2.376834 3.826881,0.207128 1.676954,-1.174583 2.381539,-2.7597 2.381539,-5.357779 0,-3.546664 0.155761,-3.690252 4.018336,-3.704317 2.210083,-0.008 5.097425,-0.303854 6.416314,-0.657349 1.740091,-0.466387 2.592351,-0.09489 3.106451,1.354076 0.389662,1.098237 1.547362,2.961195 2.572672,4.139907 6.57232,7.555651 -0.95255,30.348375 -14.506438,43.939788 -3.677725,3.687907 -9.793463,8.260628 -14.289858,10.68449 -10.926901,5.890336 -13.640317,9.255786 -14.586559,18.091656 -0.41549,3.87979 -0.435911,7.57117 -0.04538,8.20308 0.390533,0.63189 0.125237,1.85356 -0.589547,2.71482 -1.855612,2.23588 -0.714127,11.86536 1.769147,14.9244 1.113668,1.37189 4.1261,5.07302 6.694296,8.22474 2.568194,3.15172 5.823044,6.34855 7.233002,7.10407 2.426478,1.30022 2.563557,1.91618 2.563557,11.51922 0,8.72947 0.300253,10.44581 2.151158,12.29672 2.729951,2.72995 5.313932,10.08071 5.334139,15.17423 0.01306,3.29227 -0.550221,4.27642 -3.466962,6.05733 -1.915406,1.16951 -5.411358,2.65558 -7.768781,3.30237 -6.100642,1.6738 -23.511613,2.30743 -31.017711,1.12882 z M 34.561907,90.022829 C 34.221589,87.518067 33.098208,78.066924 32.065503,69.020289 30.24761,53.095289 30.100838,52.540507 27.45328,51.586565 25.949262,51.044654 22.699819,48.323895 20.232295,45.540437 l -4.486406,-5.060834 -3.005655,2.244044 C 8.6100326,45.807287 7.4881623,50.407224 8.9496466,58.26596 11.242239,70.593743 18.957359,83.549869 28.377112,90.890813 c 2.60148,2.027371 5.196522,3.68613 5.766759,3.68613 0.602447,0 0.777576,-1.907866 0.418036,-4.554114 z m 49.069897,-2.013733 c 8.375715,-7.83507 14.978844,-19.991884 16.876616,-31.07103 1.0864,-6.34235 1.00013,-7.405469 -0.858032,-10.573185 -2.561575,-4.366868 -6.309619,-6.003285 -8.219904,-3.588855 -4.141526,5.234523 -8.344832,8.938679 -10.143202,8.938679 -1.856201,0 -2.264388,1.859643 -4.410071,20.091674 -1.300497,11.050421 -2.357029,20.694424 -2.347849,21.431118 0.03136,2.516634 2.082339,1.338561 9.102442,-5.228401 z"
       id="path841" />
  </g>
</svg>
